<?xml version="1.0"?>
<svg xmlns="http://www.w3.org/2000/svg" xmlns:xlink="http://www.w3.org/1999/xlink" version="1.1" id="Capa_1" x="0px" y="0px" viewBox="0 0 512 512" style="enable-background:new 0 0 512 512;" xml:space="preserve" width="512px" height="512px" class=""><g><g>
	<g>
		<path d="M494.5,213.5h-10V161c0-4.143-3.357-7.5-7.5-7.5h-21.167c-4.143,0-7.5,3.357-7.5,7.5s3.357,7.5,7.5,7.5H469.5v175h-45    V168.454c3.75-0.414,6.667-3.594,6.667-7.454c0-3.861-2.917-7.037-6.667-7.451V136c0-4.143-3.357-7.5-7.5-7.5h-60    c-4.143,0-7.5,3.357-7.5,7.5v97.5h-187v-41.333c0-4.143-3.357-7.5-7.5-7.5s-7.5,3.357-7.5,7.5V368.5h-45v-225h45v16.333    c0,4.143,3.357,7.5,7.5,7.5s7.5-3.357,7.5-7.5V136c0-4.143-3.357-7.5-7.5-7.5H95c-4.143,0-7.5,3.357-7.5,7.5v17.5H35    c-4.143,0-7.5,3.357-7.5,7.5v52.5h-10C7.851,213.5,0,221.351,0,231v50c0,9.649,7.851,17.5,17.5,17.5h10V351    c0,4.143,3.357,7.5,7.5,7.5h52.5V376c0,4.143,3.357,7.5,7.5,7.5h60c4.143,0,7.5-3.357,7.5-7.5v-97.5h187v41    c0,4.143,3.357,7.5,7.5,7.5s7.5-3.357,7.5-7.5v-176h45v225h-45v-16.75c0-4.143-3.357-7.5-7.5-7.5s-7.5,3.357-7.5,7.5V376    c0,4.143,3.357,7.5,7.5,7.5h60c4.143,0,7.5-3.357,7.5-7.5v-17.5H477c4.143,0,7.5-3.357,7.5-7.5v-52.5h10    c9.649,0,17.5-7.851,17.5-17.5v-50C512,221.351,504.149,213.5,494.5,213.5z M27.5,283.5h-10c-1.379,0-2.5-1.121-2.5-2.5v-50    c0-1.379,1.121-2.5,2.5-2.5h10V283.5z M87.5,343.5h-45v-175h45V343.5z M349.5,263.5h-187v-15h187V263.5z M497,281    c0,1.379-1.121,2.5-2.5,2.5h-10v-55h10c1.379,0,2.5,1.121,2.5,2.5V281z" data-original="#000000" class="active-path" data-old_color="#000000" fill="#33B1EF"/>
	</g>
</g></g> </svg>
